<?xml version="1.0" standalone="no"?><svg xmlns="http://www.w3.org/2000/svg" viewBox="0 0 1440 320"><path fill="#ffd700" fill-opacity="1" d="M0,256L12.6,224C25.3,192,51,128,76,106.7C101.1,85,126,107,152,128C176.8,149,202,171,227,202.7C252.6,235,278,277,303,250.7C328.4,224,354,128,379,101.3C404.2,75,429,117,455,144C480,171,505,181,531,186.7C555.8,192,581,192,606,186.7C631.6,181,657,171,682,186.7C707.4,203,733,245,758,250.7C783.2,256,808,224,834,208C858.9,192,884,192,909,165.3C934.7,139,960,85,985,101.3C1010.5,117,1036,203,1061,229.3C1086.3,256,1112,224,1137,229.3C1162.1,235,1187,277,1213,298.7C1237.9,320,1263,320,1288,277.3C1313.7,235,1339,149,1364,106.7C1389.5,64,1415,64,1427,64L1440,64L1440,0L1427.4,0C1414.7,0,1389,0,1364,0C1338.9,0,1314,0,1288,0C1263.2,0,1238,0,1213,0C1187.4,0,1162,0,1137,0C1111.6,0,1086,0,1061,0C1035.8,0,1011,0,985,0C960,0,935,0,909,0C884.2,0,859,0,834,0C808.4,0,783,0,758,0C732.6,0,707,0,682,0C656.8,0,632,0,606,0C581.1,0,556,0,531,0C505.3,0,480,0,455,0C429.5,0,404,0,379,0C353.7,0,328,0,303,0C277.9,0,253,0,227,0C202.1,0,177,0,152,0C126.3,0,101,0,76,0C50.5,0,25,0,13,0L0,0Z"></path></svg>